<svg xmlns="http://www.w3.org/2000/svg" viewBox="0 0 1000 340" width="100%">
<style>text{font-family:sans-serif;}</style>

<rect x="40" y="60" width="280" height="240" rx="20" fill="#444441"/>
<text x="180" y="95" text-anchor="middle" font-size="18" font-weight="bold" fill="#D3D1C7">基本概念</text>
<rect x="70" y="120" width="220" height="60" rx="12" fill="#5F5E5A"/>
<text x="180" y="155" text-anchor="middle" font-size="16" fill="#F1EFE8">マウント</text>
<rect x="70" y="200" width="220" height="60" rx="12" fill="#5F5E5A"/>
<text x="180" y="235" text-anchor="middle" font-size="15" fill="#F1EFE8">バインドマウント</text>

<rect x="360" y="60" width="280" height="240" rx="20" fill="#3C3489"/>
<text x="500" y="95" text-anchor="middle" font-size="15" font-weight="bold" fill="#CECBF6">名前空間による分離</text>
<rect x="390" y="120" width="220" height="60" rx="12" fill="#534AB7"/>
<text x="500" y="155" text-anchor="middle" font-size="15" fill="#CECBF6">mount namespace</text>
<rect x="390" y="200" width="220" height="60" rx="12" fill="#534AB7"/>
<text x="500" y="222" text-anchor="middle" font-size="14" fill="#CECBF6">PID namespace<tspan x="500" dy="20">+ /proc</tspan></text>

<rect x="680" y="60" width="280" height="240" rx="20" fill="#085041"/>
<text x="820" y="95" text-anchor="middle" font-size="18" font-weight="bold" fill="#9FE1CB">確認コマンド</text>
<rect x="710" y="120" width="220" height="60" rx="12" fill="#0F6E56"/>
<text x="820" y="155" text-anchor="middle" font-size="16" fill="#9FE1CB">findmnt</text>
<rect x="710" y="200" width="220" height="60" rx="12" fill="#0F6E56"/>
<text x="820" y="235" text-anchor="middle" font-size="16" fill="#9FE1CB">lsblk</text>
</svg>
